<svg width="16" height="16" viewBox="0 0 16 16" fill="none" xmlns="http://www.w3.org/2000/svg">
<g clip-path="url(#clip0_17379:109025)">
<path d="M7.00374 0.956047C6.71175 1.17013 6.49484 1.47084 6.38378 1.81525L5.3416 4.91995H2.07563C1.70668 4.9109 1.3443 5.02032 1.04182 5.23247C0.73308 5.44902 0.503722 5.76068 0.388788 6.11985C0.273854 6.47902 0.279666 6.86594 0.405334 7.22149C0.52793 7.56835 0.758018 7.86676 1.06175 8.07349L3.7051 9.98951L2.69098 13.1137C2.57595 13.4595 2.57372 13.833 2.6847 14.1802C2.79638 14.5296 3.01684 14.8342 3.31388 15.0494C3.61092 15.2646 3.96899 15.3792 4.3358 15.3765C4.69993 15.3738 5.05374 15.2556 5.34632 15.0391L7.99888 13.1109L10.6604 15.058C10.9533 15.2752 11.3076 15.3938 11.6724 15.3965C12.0392 15.3992 12.3973 15.2846 12.6943 15.0694C12.9914 14.8542 13.2118 14.5496 13.3235 14.2002C13.4345 13.853 13.4322 13.4795 13.3172 13.1337L12.3031 10.0095L14.9464 8.09349C15.2502 7.88676 15.4803 7.58836 15.6029 7.24149C15.7285 6.88594 15.7343 6.49902 15.6194 6.13985C15.5045 5.78068 15.2751 5.46901 14.9664 5.25247C14.6639 5.04032 14.3015 4.9309 13.9325 4.93995H10.6738L9.65952 1.82077C9.549 1.47405 9.33133 1.17128 9.03778 0.956047C8.7428 0.739764 8.38654 0.623154 8.02076 0.623154C7.65498 0.623154 7.29873 0.739764 7.00374 0.956047Z" fill="#FDBC15" stroke="white" stroke-width="2" stroke-linecap="round" stroke-linejoin="round"/>
</g>
<defs>
<clipPath id="clip0_17379:109025">
<rect width="16" height="16" fill="white"/>
</clipPath>
</defs>
</svg>
